<?xml version="1.0" encoding="UTF-8" standalone="no"?>
<!-- Created with Inkscape (http://www.inkscape.org/) -->

<svg
   xmlns:dc="http://purl.org/dc/elements/1.1/"
   xmlns:cc="http://creativecommons.org/ns#"
   xmlns:rdf="http://www.w3.org/1999/02/22-rdf-syntax-ns#"
   xmlns:svg="http://www.w3.org/2000/svg"
   xmlns="http://www.w3.org/2000/svg"
   xmlns:sodipodi="http://sodipodi.sourceforge.net/DTD/sodipodi-0.dtd"
   xmlns:inkscape="http://www.inkscape.org/namespaces/inkscape"
   width="210mm"
   height="100mm"
   viewBox="0 0 744.09449 354.33071"
   id="svg2"
   version="1.1"
   inkscape:version="0.91 r13725"
   sodipodi:docname="polar.svg">
  <sodipodi:namedview
     id="base"
     pagecolor="#ffffff"
     bordercolor="#666666"
     borderopacity="1.0"
     inkscape:pageopacity="0.0"
     inkscape:pageshadow="2"
     inkscape:zoom="5.6"
     inkscape:cx="376.91829"
     inkscape:cy="162.13909"
     inkscape:document-units="px"
     inkscape:current-layer="layer1"
     showgrid="true"
     inkscape:window-width="1301"
     inkscape:window-height="744"
     inkscape:window-x="65"
     inkscape:window-y="24"
     inkscape:window-maximized="1">
    <inkscape:grid
       type="xygrid"
       id="grid4136" />
  </sodipodi:namedview>
  <defs
     id="defs4">
    <marker
       inkscape:isstock="true"
       style="overflow:visible;"
       id="marker4614"
       refX="0.0"
       refY="0.0"
       orient="auto"
       inkscape:stockid="Arrow2Lend">
      <path
         transform="scale(1.1) rotate(180) translate(1,0)"
         d="M 8.7185878,4.0337352 L -2.2072895,0.016013256 L 8.7185884,-4.0017078 C 6.9730900,-1.6296469 6.9831476,1.6157441 8.7185878,4.0337352 z "
         style="fill-rule:evenodd;stroke-width:0.625;stroke-linejoin:round;stroke:#000000;stroke-opacity:1;fill:#000000;fill-opacity:1"
         id="path4616" />
    </marker>
    <marker
       inkscape:stockid="Arrow2Lend"
       orient="auto"
       refY="0.0"
       refX="0.0"
       id="Arrow2Lend"
       style="overflow:visible;"
       inkscape:isstock="true"
       inkscape:collect="always">
      <path
         id="path4165"
         style="fill-rule:evenodd;stroke-width:0.625;stroke-linejoin:round;stroke:#000000;stroke-opacity:1;fill:#000000;fill-opacity:1"
         d="M 8.7185878,4.0337352 L -2.2072895,0.016013256 L 8.7185884,-4.0017078 C 6.9730900,-1.6296469 6.9831476,1.6157441 8.7185878,4.0337352 z "
         transform="scale(1.1) rotate(180) translate(1,0)" />
    </marker>
    <marker
       inkscape:stockid="Arrow1Lstart"
       orient="auto"
       refY="0.0"
       refX="0.0"
       id="marker4436"
       style="overflow:visible"
       inkscape:isstock="true">
      <path
         id="path4438"
         d="M 0.0,0.0 L 5.0,-5.0 L -12.5,0.0 L 5.0,5.0 L 0.0,0.0 z "
         style="fill-rule:evenodd;stroke:#000000;stroke-width:1pt;stroke-opacity:1;fill:#000000;fill-opacity:1"
         transform="scale(0.8) translate(12.5,0)" />
    </marker>
    <marker
       inkscape:stockid="Arrow1Lstart"
       orient="auto"
       refY="0.0"
       refX="0.0"
       id="marker4414"
       style="overflow:visible"
       inkscape:isstock="true">
      <path
         id="path4416"
         d="M 0.0,0.0 L 5.0,-5.0 L -12.5,0.0 L 5.0,5.0 L 0.0,0.0 z "
         style="fill-rule:evenodd;stroke:#000000;stroke-width:1pt;stroke-opacity:1;fill:#000000;fill-opacity:1"
         transform="scale(0.8) translate(12.5,0)" />
    </marker>
    <marker
       inkscape:stockid="Arrow1Lstart"
       orient="auto"
       refY="0.0"
       refX="0.0"
       id="Arrow1Lstart"
       style="overflow:visible"
       inkscape:isstock="true">
      <path
         id="path4144"
         d="M 0.0,0.0 L 5.0,-5.0 L -12.5,0.0 L 5.0,5.0 L 0.0,0.0 z "
         style="fill-rule:evenodd;stroke:#000000;stroke-width:1pt;stroke-opacity:1;fill:#000000;fill-opacity:1"
         transform="scale(0.8) translate(12.5,0)" />
    </marker>
  </defs>
  <metadata
     id="metadata7">
    <rdf:RDF>
      <cc:Work
         rdf:about="">
        <dc:format>image/svg+xml</dc:format>
        <dc:type
           rdf:resource="http://purl.org/dc/dcmitype/StillImage" />
        <dc:title />
      </cc:Work>
    </rdf:RDF>
  </metadata>
  <g
     inkscape:label="Layer 1"
     inkscape:groupmode="layer"
     id="layer1"
     transform="translate(0,-698.0315)">
    <path
       style="fill:none;fill-rule:evenodd;stroke:#000000;stroke-width:2;stroke-linecap:butt;stroke-linejoin:miter;stroke-miterlimit:4;stroke-dasharray:none;stroke-opacity:1;marker-start:url(#marker4436)"
       d="m 360,732.36222 0,279.99998"
       id="path4138"
       inkscape:connector-type="polyline"
       inkscape:connector-curvature="3" />
    <path
       style="fill:none;fill-rule:evenodd;stroke:#000000;stroke-width:2;stroke-linecap:butt;stroke-linejoin:miter;stroke-miterlimit:4;stroke-dasharray:none;stroke-opacity:1;marker-end:url(#Arrow2Lend)"
       d="m 120,892.36222 497.14286,0"
       id="path4494"
       inkscape:connector-type="polyline"
       inkscape:connector-curvature="3" />
    <circle
       style="fill:none;fill-opacity:1;stroke:#000000;stroke-width:3;stroke-miterlimit:4;stroke-dasharray:3,3;stroke-opacity:1;stroke-dashoffset:0"
       id="path4578"
       cx="360"
       cy="888.36224"
       r="99.961624" />
    <circle
       style="fill:#000000;fill-opacity:1;stroke:#000000;stroke-width:3;stroke-miterlimit:4;stroke-dasharray:none;stroke-dashoffset:0;stroke-opacity:1"
       id="path4604"
       cx="420"
       cy="810.36224"
       r="10" />
    <path
       style="fill:none;fill-rule:evenodd;stroke:#000000;stroke-width:0.90743953px;stroke-linecap:butt;stroke-linejoin:miter;stroke-opacity:1;marker-end:url(#marker4614)"
       d="m 359.96548,892.39312 54.07981,-73.08723"
       id="path4606"
       inkscape:connector-type="polyline"
       inkscape:connector-curvature="3" />
    <g
       id="g4862"
       transform="translate(256.49753,506.18795)">
      <g
         word-spacing="normal"
         letter-spacing="normal"
         font-size-adjust="none"
         font-stretch="normal"
         font-weight="normal"
         font-variant="normal"
         font-style="normal"
         stroke-miterlimit="10.433"
         xml:space="preserve"
         transform="matrix(0.50618673,0,0,-0.50618673,-88.582677,558.07087)"
         id="g4864"
         style="font-style:normal;font-variant:normal;font-weight:normal;font-stretch:normal;letter-spacing:normal;word-spacing:normal;text-anchor:start;fill:none;fill-opacity:1;fill-rule:evenodd;stroke:#000000;stroke-linecap:butt;stroke-linejoin:miter;stroke-miterlimit:10.43299961;stroke-dasharray:none;stroke-dashoffset:0;stroke-opacity:1"><path
           id="path4866"
           d="m 506.75,449.64 -0.07,-0.06 -0.07,-0.07 -0.08,-0.07 -0.08,-0.07 -0.09,-0.08 -0.09,-0.08 -0.09,-0.09 -0.09,-0.09 -0.1,-0.09 -0.09,-0.09 -0.2,-0.19 -0.19,-0.19 -0.19,-0.21 -0.09,-0.1 -0.09,-0.1 -0.09,-0.1 -0.08,-0.11 -0.08,-0.1 -0.08,-0.1 -0.07,-0.1 -0.06,-0.1 -0.06,-0.1 -0.05,-0.1 -0.05,-0.1 -0.04,-0.09 -0.03,-0.1 -0.02,-0.09 -0.02,-0.09 0,-0.08 c 0,-0.5 0.5,-1 1,-1 0.44,0 0.69,0.35 0.94,0.65 0.6,0.75 1.74,2.14 3.94,3.24 0.35,0.2 0.84,0.45 0.84,1.05 0,0.49 -0.34,0.74 -0.69,0.99 -1.1,0.75 -1.65,1.64 -2.05,2.84 -0.1,0.45 -0.3,1.1 -0.99,1.1 -0.7,0 -1,-0.65 -1,-1.05 0,-0.25 0.4,-1.84 1.2,-2.89 l -16.79,0 c -0.85,0 -1.74,0 -1.74,-0.99 0,-1 0.89,-1 1.74,-1 z"
           inkscape:connector-curvature="0"
           style="fill:#000000;stroke-width:0" /><path
           id="path4868"
           d="m 460.38,407.94 -0.01,-0.07 -0.02,-0.08 -0.01,-0.07 -0.02,-0.08 -0.03,-0.16 -0.04,-0.16 -0.04,-0.16 -0.03,-0.16 -0.04,-0.16 -0.04,-0.16 -0.01,-0.08 -0.02,-0.07 -0.02,-0.07 -0.01,-0.07 -0.02,-0.07 -0.01,-0.07 -0.01,-0.06 -0.02,-0.06 -0.01,-0.05 -0.01,-0.06 -0.01,-0.05 0,-0.04 -0.01,-0.04 0,-0.04 -0.01,-0.03 0,-0.02 c 0,-0.9 0.7,-1.35 1.45,-1.35 0.6,0 1.5,0.4 1.84,1.4 0.1,0.2 1.8,6.97 1.99,7.87 0.4,1.64 1.3,5.13 1.6,6.47 0.2,0.65 1.59,2.99 2.79,4.09 0.4,0.34 1.84,1.64 3.99,1.64 1.29,0 2.03,-0.6 2.09,-0.6 -1.5,-0.25 -2.59,-1.44 -2.59,-2.73 0,-0.8 0.54,-1.75 1.89,-1.75 1.34,0 2.74,1.14 2.74,2.94 0,1.74 -1.6,3.24 -4.13,3.24 -3.24,0 -5.43,-2.44 -6.38,-3.84 -0.4,2.24 -2.19,3.84 -4.53,3.84 -2.3,0 -3.24,-1.95 -3.69,-2.84 -0.9,-1.7 -1.54,-4.68 -1.54,-4.83 0,-0.5 0.49,-0.5 0.59,-0.5 0.5,0 0.55,0.05 0.85,1.14 0.84,3.54 1.84,5.93 3.64,5.93 0.84,0 1.54,-0.4 1.54,-2.29 0,-1.04 -0.15,-1.59 -0.8,-4.18 z"
           inkscape:connector-curvature="0"
           style="fill:#000000;stroke-width:0" /><path
           id="path4870"
           d="m 495.49,393.04 0,0.03 0,0.03 -0.01,0.01 0,0.02 0,0.01 -0.01,0.02 0,0.02 -0.01,0.01 -0.01,0.02 -0.01,0.02 -0.01,0.03 -0.01,0.02 -0.02,0.02 -0.02,0.03 -0.02,0.03 -0.02,0.03 -0.03,0.03 -0.03,0.04 -0.01,0.02 -0.02,0.02 -0.02,0.02 -0.02,0.02 -0.02,0.02 -0.02,0.03 -0.02,0.02 -0.02,0.02 -0.02,0.03 -0.03,0.02 -0.02,0.03 -0.03,0.03 -0.02,0.03 -0.03,0.03 -0.03,0.03 -0.03,0.03 -0.03,0.03 -0.03,0.03 -0.04,0.04 -0.03,0.03 -0.04,0.04 -0.03,0.03 -0.04,0.04 -0.04,0.04 c -6.23,6.28 -7.82,15.69 -7.82,23.31 0,8.67 1.89,17.34 8.02,23.57 0.65,0.59 0.65,0.69 0.65,0.84 0,0.35 -0.2,0.5 -0.5,0.5 -0.5,0 -4.98,-3.39 -7.92,-9.72 -2.54,-5.47 -3.14,-11 -3.14,-15.19 0,-3.88 0.55,-9.91 3.29,-15.54 2.99,-6.12 7.27,-9.36 7.77,-9.36 0.3,0 0.5,0.15 0.5,0.49 z"
           inkscape:connector-curvature="0"
           style="fill:#000000;stroke-width:0" /><path
           id="path4872"
           d="m 509.26,424.93 4.69,0 c 0.99,0 1.49,0 1.49,0.99 0,0.55 -0.5,0.55 -1.4,0.55 l -4.38,0 c 1.79,7.07 2.04,8.07 2.04,8.37 0,0.84 -0.59,1.34 -1.44,1.34 -0.15,0 -1.55,-0.05 -1.99,-1.79 l -1.95,-7.92 -4.68,0 c -1,0 -1.5,0 -1.5,-0.95 0,-0.59 0.4,-0.59 1.4,-0.59 l 4.39,0 c -3.59,-14.15 -3.79,-15 -3.79,-15.89 0,-2.7 1.89,-4.59 4.58,-4.59 5.08,0 7.92,7.28 7.92,7.67 0,0.5 -0.4,0.5 -0.6,0.5 -0.45,0 -0.49,-0.15 -0.74,-0.69 -2.14,-5.19 -4.78,-6.38 -6.48,-6.38 -1.05,0 -1.54,0.65 -1.54,2.29 0,1.2 0.1,1.54 0.29,2.39 z"
           inkscape:connector-curvature="0"
           style="fill:#000000;stroke-width:0" /><path
           id="path4874"
           d="m 531.4,417.45 -0.01,0.37 0,0.39 -0.01,0.39 -0.01,0.41 -0.04,0.84 -0.06,0.88 -0.09,0.92 -0.1,0.94 -0.14,0.98 -0.16,1 -0.2,1.02 -0.23,1.04 -0.27,1.05 -0.3,1.06 -0.35,1.06 -0.39,1.07 -0.22,0.53 -0.22,0.54 -0.24,0.53 -0.25,0.53 c -2.99,6.12 -7.27,9.36 -7.77,9.36 -0.3,0 -0.5,-0.2 -0.5,-0.5 0,-0.15 0,-0.25 0.94,-1.15 4.89,-4.92 7.73,-12.85 7.73,-23.26 0,-8.52 -1.85,-17.28 -8.02,-23.56 -0.65,-0.6 -0.65,-0.69 -0.65,-0.85 0,-0.29 0.2,-0.49 0.5,-0.49 0.5,0 4.98,3.38 7.92,9.71 2.54,5.48 3.14,11.01 3.14,15.19 z"
           inkscape:connector-curvature="0"
           style="fill:#000000;stroke-width:0" /></g>    </g>
    <g
       transform="translate(464.67017,572.7565)"
       id="g4937">
      <g
         style="font-style:normal;font-variant:normal;font-weight:normal;font-stretch:normal;letter-spacing:normal;word-spacing:normal;text-anchor:start;fill:none;fill-opacity:1;fill-rule:evenodd;stroke:#000000;stroke-linecap:butt;stroke-linejoin:miter;stroke-miterlimit:10.43299961;stroke-dasharray:none;stroke-dashoffset:0;stroke-opacity:1"
         id="content"
         transform="matrix(0.50618673,0,0,-0.50618673,-88.582677,558.07087)"
         xml:space="preserve"
         stroke-miterlimit="10.433"
         font-style="normal"
         font-variant="normal"
         font-weight="normal"
         font-stretch="normal"
         font-size-adjust="none"
         letter-spacing="normal"
         word-spacing="normal"><polygon
           style="fill:#000000;stroke-width:0"
           points="458.68,444.9 464.45,449.98 470.18,444.9 471.08,445.8 464.45,452.57 457.78,445.8 "
           id="polygon4940" /><path
           style="fill:#000000;stroke-width:0"
           inkscape:connector-curvature="0"
           d="m 470.15,437.13 0,0.1 -0.01,0.09 -0.01,0.09 -0.01,0.09 -0.02,0.08 -0.02,0.09 -0.03,0.08 -0.03,0.08 -0.03,0.08 -0.04,0.08 -0.04,0.08 -0.04,0.07 -0.05,0.07 -0.05,0.07 -0.06,0.06 -0.05,0.06 -0.07,0.06 -0.06,0.06 -0.07,0.05 -0.07,0.05 -0.07,0.05 -0.08,0.04 -0.08,0.04 -0.08,0.04 -0.09,0.03 -0.09,0.03 -0.09,0.02 -0.1,0.02 -0.1,0.02 -0.1,0.01 -0.1,0 -0.11,0.01 c -1.34,0 -2.69,-1.3 -2.69,-2.64 0,-0.95 0.7,-1.8 1.9,-1.8 1.14,0 2.64,1.15 2.64,2.64 z"
           id="path4942" /><path
           style="fill:#000000;stroke-width:0"
           inkscape:connector-curvature="0"
           d="m 466.36,418.4 0.05,0.13 0.05,0.13 0.05,0.12 0.05,0.11 0.04,0.1 0.04,0.1 0.04,0.09 0.03,0.09 0.04,0.09 0.03,0.08 0.03,0.08 0.03,0.08 0.03,0.07 0.02,0.07 0.05,0.15 0.06,0.14 0.05,0.14 0.02,0.07 0.03,0.08 0.03,0.08 0.03,0.08 0.03,0.08 0.03,0.09 0.04,0.09 0.03,0.1 0.04,0.11 0.04,0.1 0.04,0.12 0.05,0.12 c 0.4,1 0.65,1.69 0.65,2.64 0,2.25 -1.6,4.09 -4.09,4.09 -4.68,0 -6.57,-7.23 -6.57,-7.67 0,-0.5 0.49,-0.5 0.59,-0.5 0.5,0 0.55,0.1 0.8,0.9 1.34,4.68 3.34,6.17 5.03,6.17 0.4,0 1.25,0 1.25,-1.59 0,-1.05 -0.35,-2.1 -0.55,-2.59 -0.4,-1.3 -2.64,-7.08 -3.44,-9.22 -0.5,-1.29 -1.15,-2.94 -1.15,-3.98 0,-2.34 1.7,-4.09 4.09,-4.09 4.68,0 6.52,7.23 6.52,7.67 0,0.5 -0.44,0.5 -0.59,0.5 -0.5,0 -0.5,-0.15 -0.75,-0.89 -0.89,-3.14 -2.54,-6.18 -5.08,-6.18 -0.85,0 -1.2,0.5 -1.2,1.64 0,1.25 0.3,1.94 1.45,4.98 z"
           id="path4944" /></g>    </g>
    <g
       transform="translate(232.33509,393.95949)"
       id="g5010">
      <g
         style="font-style:normal;font-variant:normal;font-weight:normal;font-stretch:normal;letter-spacing:normal;word-spacing:normal;text-anchor:start;fill:none;fill-opacity:1;fill-rule:evenodd;stroke:#000000;stroke-linecap:butt;stroke-linejoin:miter;stroke-miterlimit:10.43299961;stroke-dasharray:none;stroke-dashoffset:0;stroke-opacity:1"
         word-spacing="normal"
         letter-spacing="normal"
         font-size-adjust="none"
         font-stretch="normal"
         font-weight="normal"
         font-variant="normal"
         font-style="normal"
         stroke-miterlimit="10.433"
         xml:space="preserve"
         transform="matrix(0.50618673,0,0,-0.50618673,-88.582677,558.07087)"
         id="g5012"><polygon
           style="fill:#000000;stroke-width:0"
           id="polygon5014"
           points="461.68,444.9 467.45,449.98 473.18,444.9 474.08,445.8 467.45,452.57 460.78,445.8 " /><path
           style="fill:#000000;stroke-width:0"
           inkscape:connector-curvature="0"
           id="path5016"
           d="m 475.78,437.13 -0.01,0.09 0,0.09 -0.01,0.09 -0.02,0.08 -0.01,0.09 -0.03,0.08 -0.02,0.08 -0.03,0.08 -0.03,0.08 -0.04,0.08 -0.04,0.07 -0.05,0.08 -0.05,0.07 -0.05,0.06 -0.05,0.07 -0.06,0.06 -0.06,0.06 -0.07,0.06 -0.07,0.06 -0.07,0.05 -0.08,0.05 -0.08,0.04 -0.08,0.04 -0.09,0.04 -0.09,0.03 -0.09,0.03 -0.09,0.03 -0.1,0.02 -0.1,0.01 -0.11,0.02 -0.11,0 -0.11,0.01 c -1.14,0 -2.64,-1.15 -2.64,-2.64 0,-1 0.7,-1.8 1.85,-1.8 1.34,0 2.69,1.3 2.69,2.64 z" /><path
           style="fill:#000000;stroke-width:0"
           inkscape:connector-curvature="0"
           id="path5018"
           d="m 465.76,403.51 -0.09,-0.35 -0.1,-0.35 -0.11,-0.34 -0.12,-0.33 -0.12,-0.33 -0.14,-0.32 -0.14,-0.31 -0.14,-0.3 -0.16,-0.3 -0.16,-0.29 -0.16,-0.27 -0.18,-0.27 -0.18,-0.26 -0.18,-0.25 -0.19,-0.24 -0.2,-0.22 -0.2,-0.22 -0.21,-0.2 -0.21,-0.2 -0.22,-0.18 -0.22,-0.17 -0.23,-0.15 -0.23,-0.15 -0.23,-0.12 -0.24,-0.12 -0.24,-0.1 -0.25,-0.09 -0.25,-0.07 -0.25,-0.05 -0.25,-0.04 -0.26,-0.03 -0.26,-0.01 c -0.3,0 -1.05,0 -1.94,0.45 1.49,0.35 2.23,1.65 2.23,2.64 0,0.8 -0.54,1.74 -1.89,1.74 -1.24,0 -2.69,-1.04 -2.69,-2.83 0,-2 1.99,-3.09 4.38,-3.09 3.49,0 8.13,2.64 9.37,7.57 l 4.58,18.23 c 0.25,1 0.25,1.7 0.25,1.84 0,2.84 -2.09,4.59 -4.58,4.59 -5.08,0 -7.92,-7.23 -7.92,-7.67 0,-0.5 0.5,-0.5 0.6,-0.5 0.45,0 0.5,0.05 0.9,0.99 1.24,3.04 3.53,6.08 6.27,6.08 0.7,0 1.59,-0.2 1.59,-2.29 0,-1.15 -0.15,-1.69 -0.34,-2.54 z" /></g>    </g>
    <g
       transform="translate(196.97975,565.68543)"
       id="g5094">
      <g
         style="font-style:normal;font-variant:normal;font-weight:normal;font-stretch:normal;letter-spacing:normal;word-spacing:normal;text-anchor:start;fill:none;fill-opacity:1;fill-rule:evenodd;stroke:#000000;stroke-linecap:butt;stroke-linejoin:miter;stroke-miterlimit:10.43299961;stroke-dasharray:none;stroke-dashoffset:0;stroke-opacity:1"
         id="g5096"
         transform="matrix(0.50618673,0,0,-0.50618673,-88.582677,558.07087)"
         xml:space="preserve"
         stroke-miterlimit="10.433"
         font-style="normal"
         font-variant="normal"
         font-weight="normal"
         font-stretch="normal"
         font-size-adjust="none"
         letter-spacing="normal"
         word-spacing="normal"><polygon
           style="fill:#000000;stroke-width:0"
           points="463.68,445.9 469.45,450.98 475.18,445.9 476.08,446.8 469.45,453.57 462.78,446.8 "
           id="polygon5098" /><path
           style="fill:#000000;stroke-width:0"
           inkscape:connector-curvature="0"
           d="m 470.3,440.02 0,0.01 0,0 0,0.01 0,0.01 0,0.01 -0.01,0.01 0,0.02 0,0.02 0,0.02 -0.01,0.02 0,0.02 -0.01,0.02 -0.01,0.03 -0.01,0.02 -0.01,0.03 -0.01,0.02 -0.01,0.02 -0.02,0.03 -0.02,0.02 -0.02,0.03 -0.02,0.02 -0.01,0.01 -0.02,0.01 -0.01,0.01 -0.01,0.01 -0.02,0.01 -0.01,0.01 -0.02,0.01 -0.02,0.01 -0.01,0.01 -0.02,0.01 -0.02,0.01 -0.02,0 -0.02,0.01 -0.02,0.01 -0.02,0 -0.03,0.01 -0.02,0 -0.03,0.01 -0.02,0 -0.03,0 -0.02,0.01 -0.03,0 -0.03,0 -0.03,0 c -1.15,0 -4.78,-0.4 -6.08,-0.5 -0.4,-0.05 -0.95,-0.1 -0.95,-1 0,-0.59 0.45,-0.59 1.2,-0.59 2.39,0 2.49,-0.35 2.49,-0.85 l -0.15,-0.99 -7.22,-28.7 c -0.2,-0.69 -0.2,-0.8 -0.2,-1.09 0,-1.15 0.99,-1.4 1.44,-1.4 0.65,0 1.4,0.45 1.7,1.05 0.25,0.45 2.49,9.66 2.79,10.91 1.69,-0.15 5.78,-0.95 5.78,-4.24 0,-0.35 0,-0.55 -0.15,-1.04 -0.1,-0.6 -0.2,-1.2 -0.2,-1.75 0,-2.93 1.99,-4.93 4.58,-4.93 1.5,0 2.84,0.8 3.93,2.64 1.25,2.2 1.8,4.93 1.8,5.03 0,0.5 -0.45,0.5 -0.6,0.5 -0.5,0 -0.55,-0.2 -0.7,-0.89 -0.99,-3.64 -2.14,-6.18 -4.33,-6.18 -0.95,0 -1.6,0.55 -1.6,2.34 0,0.84 0.21,1.99 0.41,2.79 0.2,0.85 0.2,1.05 0.2,1.54 0,3.24 -3.15,4.69 -7.38,5.23 1.55,0.9 3.14,2.5 4.29,3.69 2.39,2.64 4.68,4.78 7.12,4.78 0.3,0 0.35,0 0.45,-0.05 0.59,-0.1 0.64,-0.1 1.04,-0.4 0.1,-0.05 0.1,-0.09 0.2,-0.2 -2.39,-0.15 -2.84,-2.09 -2.84,-2.68 0,-0.8 0.55,-1.75 1.9,-1.75 1.29,0 2.73,1.1 2.73,3.04 0,1.5 -1.14,3.14 -3.38,3.14 -1.4,0 -3.69,-0.4 -7.28,-4.39 -1.69,-1.89 -3.63,-3.88 -5.52,-4.63 z"
           id="path5100" /></g>    </g>
    <circle
       r="10"
       cy="892.36224"
       cx="360"
       id="path5142"
       style="fill:none;fill-opacity:1;stroke:#000000;stroke-width:3;stroke-miterlimit:4;stroke-dasharray:none;stroke-dashoffset:0;stroke-opacity:1" />
    <ellipse
       ry="2.6969883"
       rx="3.3283336"
       cy="892.23602"
       cx="360.25253"
       id="path5147"
       style="fill:#000000;fill-opacity:1;stroke:#000000;stroke-width:1.79764605;stroke-miterlimit:4;stroke-dasharray:none;stroke-dashoffset:0;stroke-opacity:1" />
    <path
       d="m 382.97074,862.2927 a 41.676208,34.464794 0 0 1 20.17458,28.7292 l -41.66497,0.80018 z"
       sodipodi:end="6.2599659"
       sodipodi:start="5.2541567"
       sodipodi:ry="34.464794"
       sodipodi:rx="41.676208"
       sodipodi:cy="891.82208"
       sodipodi:cx="361.48035"
       sodipodi:type="arc"
       id="path7175"
       style="fill:none;fill-opacity:1;stroke:#000000;stroke-width:2;stroke-miterlimit:4;stroke-dasharray:none;stroke-dashoffset:0;stroke-opacity:1" />
    <g
       id="g7222"
       transform="translate(261.25,536.96429)">
      <g
         word-spacing="normal"
         letter-spacing="normal"
         font-size-adjust="none"
         font-stretch="normal"
         font-weight="normal"
         font-variant="normal"
         font-style="normal"
         stroke-miterlimit="10.433"
         xml:space="preserve"
         transform="matrix(0.50618673,0,0,-0.50618673,-88.582677,558.07087)"
         id="g7224"
         style="font-style:normal;font-variant:normal;font-weight:normal;font-stretch:normal;letter-spacing:normal;word-spacing:normal;text-anchor:start;fill:none;fill-opacity:1;fill-rule:evenodd;stroke:#000000;stroke-linecap:butt;stroke-linejoin:miter;stroke-miterlimit:10.43299961;stroke-dasharray:none;stroke-dashoffset:0;stroke-opacity:1"><path
           id="path7226"
           d="m 478.66,430.91 0,0.31 -0.01,0.34 -0.01,0.36 -0.02,0.37 -0.03,0.38 -0.04,0.4 -0.05,0.41 -0.06,0.41 -0.06,0.42 -0.08,0.42 -0.09,0.43 -0.1,0.42 -0.11,0.43 -0.13,0.42 -0.13,0.41 -0.16,0.4 -0.17,0.4 -0.18,0.39 -0.2,0.37 -0.22,0.35 -0.23,0.34 -0.25,0.32 -0.27,0.3 -0.29,0.27 -0.31,0.25 -0.17,0.12 -0.16,0.11 -0.18,0.1 -0.17,0.09 -0.19,0.09 -0.19,0.07 -0.19,0.07 -0.2,0.06 -0.21,0.06 -0.21,0.04 -0.21,0.03 -0.23,0.03 -0.23,0.01 -0.23,0.01 -0.05,-1.1 c 2.44,0 2.74,-3.18 2.74,-6.02 0,-2.45 -0.4,-4.99 -1.59,-9.92 l -10.42,0 c 0.85,3.19 1.84,7.17 3.84,10.71 1.34,2.44 3.18,5.23 5.43,5.23 l 0.05,1.1 c -6.93,0 -14.6,-14.05 -14.6,-25.46 0,-4.68 1.45,-10.21 5.98,-10.21 l 0,1.1 c -1.64,0 -2.69,1.44 -2.69,6.07 0,2.1 0.3,4.99 1.59,9.87 l 10.37,0 c -0.55,-2.29 -1.6,-6.53 -3.49,-10.11 -1.74,-3.39 -3.64,-5.83 -5.78,-5.83 l 0,-1.1 c 7.02,0 14.59,14.3 14.59,25.46 z"
           inkscape:connector-curvature="0"
           style="fill:#000000;stroke-width:0" /></g>    </g>
  </g>
</svg>
